<svg width="101" height="99" viewBox="0 0 101 99" fill="none" xmlns="http://www.w3.org/2000/svg">
<path fill-rule="evenodd" clip-rule="evenodd" d="M99.9438 1.03569C100.952 2.02371 101.271 3.50092 100.76 4.80506L64.6881 96.7336C64.1664 98.063 62.8814 98.9562 61.4286 98.9986C59.9758 99.041 58.6391 98.2243 58.0376 96.9274L42.9528 64.3981L65.1474 42.643C67.2604 40.5719 67.2604 37.2138 65.1474 35.1427C63.0344 33.0715 59.6085 33.0715 57.4955 35.1427L35.3009 56.8978L2.11451 42.1118C0.791342 41.5222 -0.0415962 40.2119 0.00160335 38.7878C0.0448032 37.3639 0.955705 36.1043 2.31227 35.5929L96.0979 0.235773C97.4282 -0.265819 98.9353 0.0476669 99.9438 1.03569Z" fill="black"/>
</svg>
