<svg width="194" height="43" viewBox="0 0 194 43" fill="none" xmlns="http://www.w3.org/2000/svg">
<g filter="url(#filter0_d_6_44)">
<path d="M11.6183 27L4.12678 0.818181H10.1737L14.5075 19.0099H14.7248L19.506 0.818181H24.6836L29.4521 19.0483H29.6822L34.016 0.818181H40.0629L32.5714 27H27.1765L22.1907 9.8821H21.9862L17.0131 27H11.6183ZM48.3693 15.6477V27H42.9233V0.818181H48.2159V10.8281H48.446C48.8892 9.66903 49.6051 8.76136 50.5938 8.10511C51.5824 7.44034 52.8224 7.10795 54.3139 7.10795C55.6776 7.10795 56.8665 7.40625 57.8807 8.00284C58.9034 8.59091 59.696 9.43892 60.2585 10.5469C60.8295 11.6463 61.1108 12.9631 61.1023 14.4972V27H55.6562V15.4688C55.6648 14.2585 55.358 13.3168 54.7358 12.6435C54.1222 11.9702 53.2614 11.6335 52.1534 11.6335C51.4119 11.6335 50.7557 11.7912 50.1847 12.1065C49.6222 12.4219 49.179 12.8821 48.8551 13.4872C48.5398 14.0838 48.3778 14.804 48.3693 15.6477ZM70.9876 27.3707C69.7347 27.3707 68.6183 27.1534 67.6381 26.7188C66.658 26.2756 65.8825 25.6236 65.3114 24.7628C64.7489 23.8935 64.4677 22.8111 64.4677 21.5156C64.4677 20.4247 64.668 19.5085 65.0685 18.767C65.4691 18.0256 66.0146 17.429 66.7049 16.9773C67.3952 16.5256 68.1793 16.1847 69.0572 15.9545C69.9435 15.7244 70.8725 15.5625 71.8441 15.4688C72.9862 15.3494 73.9066 15.2386 74.6055 15.1364C75.3043 15.0256 75.8114 14.8636 76.1268 14.6506C76.4421 14.4375 76.5998 14.1222 76.5998 13.7045V13.6278C76.5998 12.8182 76.3441 12.1918 75.8327 11.7486C75.3299 11.3054 74.614 11.0838 73.685 11.0838C72.7049 11.0838 71.9251 11.3011 71.3455 11.7358C70.766 12.1619 70.3825 12.6989 70.195 13.3466L65.158 12.9375C65.4137 11.7443 65.9165 10.7131 66.6665 9.84375C67.4165 8.96591 68.3839 8.29261 69.5685 7.82386C70.7617 7.34659 72.1424 7.10795 73.7106 7.10795C74.8015 7.10795 75.8455 7.2358 76.8427 7.49148C77.8484 7.74716 78.739 8.14347 79.5146 8.6804C80.2987 9.21733 80.9165 9.90767 81.3683 10.7514C81.82 11.5866 82.0458 12.5881 82.0458 13.7557V27H76.881V24.277H76.7276C76.4123 24.8906 75.9904 25.4318 75.462 25.9006C74.9336 26.3608 74.2987 26.723 73.5572 26.9872C72.8157 27.2429 71.9592 27.3707 70.9876 27.3707ZM72.5472 23.6122C73.3484 23.6122 74.0558 23.4545 74.6694 23.1392C75.283 22.8153 75.7646 22.3807 76.114 21.8352C76.4634 21.2898 76.6381 20.6719 76.6381 19.9815V17.8977C76.4677 18.0085 76.2333 18.1108 75.935 18.2045C75.6452 18.2898 75.3171 18.3707 74.9506 18.4474C74.5842 18.5156 74.2177 18.5795 73.8512 18.6392C73.4847 18.6903 73.1523 18.7372 72.854 18.7798C72.2148 18.8736 71.6566 19.0227 71.1793 19.2273C70.7021 19.4318 70.3313 19.7088 70.0671 20.0582C69.8029 20.3991 69.6708 20.8253 69.6708 21.3366C69.6708 22.0781 69.9393 22.6449 70.4762 23.0369C71.0217 23.4205 71.712 23.6122 72.5472 23.6122ZM96.7156 7.36364V11.4545H84.8903V7.36364H96.7156ZM87.5749 2.65909H93.021V20.9659C93.021 21.4687 93.0977 21.8608 93.2511 22.142C93.4045 22.4148 93.6175 22.6065 93.8903 22.7173C94.1715 22.8281 94.4954 22.8835 94.8619 22.8835C95.1175 22.8835 95.3732 22.8622 95.6289 22.8196C95.8846 22.7685 96.0806 22.7301 96.217 22.7045L97.0735 26.7571C96.8008 26.8423 96.4173 26.9403 95.9229 27.0511C95.4286 27.1705 94.8278 27.2429 94.1204 27.2685C92.8079 27.3196 91.6573 27.1449 90.6687 26.7443C89.6886 26.3437 88.9258 25.7216 88.3803 24.8778C87.8349 24.0341 87.5664 22.9687 87.5749 21.6818V2.65909ZM116.355 12.9631L111.369 13.2699C111.284 12.8437 111.101 12.4602 110.82 12.1193C110.538 11.7699 110.168 11.4929 109.707 11.2884C109.256 11.0753 108.714 10.9688 108.084 10.9688C107.24 10.9688 106.528 11.1477 105.949 11.5057C105.369 11.8551 105.08 12.3239 105.08 12.9119C105.08 13.3807 105.267 13.777 105.642 14.1009C106.017 14.4247 106.661 14.6847 107.572 14.8807L111.126 15.5966C113.036 15.9886 114.459 16.6193 115.396 17.4886C116.334 18.358 116.803 19.5 116.803 20.9148C116.803 22.2017 116.423 23.331 115.665 24.3026C114.915 25.2741 113.884 26.0327 112.571 26.5781C111.267 27.1151 109.763 27.3835 108.058 27.3835C105.459 27.3835 103.388 26.8423 101.845 25.7599C100.311 24.669 99.4119 23.1861 99.1477 21.3111L104.504 21.0298C104.666 21.8224 105.058 22.4276 105.68 22.8452C106.303 23.2543 107.099 23.4588 108.071 23.4588C109.026 23.4588 109.793 23.2756 110.372 22.9091C110.96 22.5341 111.259 22.0526 111.267 21.4645C111.259 20.9702 111.05 20.5653 110.641 20.25C110.232 19.9261 109.601 19.679 108.749 19.5085L105.348 18.831C103.43 18.4474 102.003 17.7827 101.065 16.8366C100.136 15.8906 99.6719 14.6847 99.6719 13.2188C99.6719 11.9574 100.013 10.8707 100.695 9.95881C101.385 9.04688 102.352 8.34375 103.597 7.84943C104.849 7.35511 106.315 7.10795 107.994 7.10795C110.474 7.10795 112.426 7.6321 113.849 8.6804C115.281 9.72869 116.116 11.1562 116.355 12.9631ZM124.847 27H118.915L127.953 0.818181H135.087L144.113 27H138.181L131.623 6.80114H131.418L124.847 27ZM124.476 16.7088H138.488V21.0298H124.476V16.7088ZM147.162 34.3636V7.36364H152.531V10.6619H152.774C153.012 10.1335 153.358 9.59659 153.809 9.05114C154.27 8.49716 154.866 8.03693 155.599 7.67045C156.341 7.29545 157.261 7.10795 158.36 7.10795C159.792 7.10795 161.113 7.48295 162.324 8.23295C163.534 8.97443 164.501 10.0952 165.225 11.5952C165.95 13.0866 166.312 14.9574 166.312 17.2074C166.312 19.3977 165.958 21.2472 165.251 22.7557C164.552 24.2557 163.598 25.3935 162.387 26.169C161.186 26.9361 159.839 27.3196 158.348 27.3196C157.291 27.3196 156.392 27.1449 155.65 26.7955C154.917 26.446 154.316 26.0071 153.848 25.4787C153.379 24.9418 153.021 24.4006 152.774 23.8551H152.608V34.3636H147.162ZM152.493 17.1818C152.493 18.3494 152.654 19.3679 152.978 20.2372C153.302 21.1065 153.771 21.7841 154.385 22.2699C154.998 22.7472 155.744 22.9858 156.622 22.9858C157.508 22.9858 158.258 22.7429 158.872 22.2571C159.485 21.7628 159.95 21.081 160.265 20.2116C160.589 19.3338 160.751 18.3239 160.751 17.1818C160.751 16.0483 160.593 15.0511 160.278 14.1903C159.963 13.3295 159.498 12.6562 158.885 12.1705C158.271 11.6847 157.517 11.4418 156.622 11.4418C155.735 11.4418 154.985 11.6761 154.372 12.1449C153.767 12.6136 153.302 13.2784 152.978 14.1392C152.654 15 152.493 16.0142 152.493 17.1818ZM169.943 34.3636V7.36364H175.312V10.6619H175.555C175.794 10.1335 176.139 9.59659 176.591 9.05114C177.051 8.49716 177.647 8.03693 178.38 7.67045C179.122 7.29545 180.042 7.10795 181.142 7.10795C182.574 7.10795 183.895 7.48295 185.105 8.23295C186.315 8.97443 187.282 10.0952 188.007 11.5952C188.731 13.0866 189.093 14.9574 189.093 17.2074C189.093 19.3977 188.74 21.2472 188.032 22.7557C187.333 24.2557 186.379 25.3935 185.169 26.169C183.967 26.9361 182.62 27.3196 181.129 27.3196C180.072 27.3196 179.173 27.1449 178.431 26.7955C177.699 26.446 177.098 26.0071 176.629 25.4787C176.16 24.9418 175.802 24.4006 175.555 23.8551H175.389V34.3636H169.943ZM175.274 17.1818C175.274 18.3494 175.436 19.3679 175.76 20.2372C176.083 21.1065 176.552 21.7841 177.166 22.2699C177.779 22.7472 178.525 22.9858 179.403 22.9858C180.289 22.9858 181.039 22.7429 181.653 22.2571C182.267 21.7628 182.731 21.081 183.047 20.2116C183.37 19.3338 183.532 18.3239 183.532 17.1818C183.532 16.0483 183.375 15.0511 183.059 14.1903C182.744 13.3295 182.279 12.6562 181.666 12.1705C181.052 11.6847 180.298 11.4418 179.403 11.4418C178.517 11.4418 177.767 11.6761 177.153 12.1449C176.548 12.6136 176.083 13.2784 175.76 14.1392C175.436 15 175.274 16.0142 175.274 17.1818Z" fill="#25D366"/>
</g>
<defs>
<filter id="filter0_d_6_44" x="0.12677" y="0.818176" width="192.967" height="41.5455" filterUnits="userSpaceOnUse" color-interpolation-filters="sRGB">
<feFlood flood-opacity="0" result="BackgroundImageFix"/>
<feColorMatrix in="SourceAlpha" type="matrix" values="0 0 0 0 0 0 0 0 0 0 0 0 0 0 0 0 0 0 127 0" result="hardAlpha"/>
<feOffset dy="4"/>
<feGaussianBlur stdDeviation="2"/>
<feComposite in2="hardAlpha" operator="out"/>
<feColorMatrix type="matrix" values="0 0 0 0 0 0 0 0 0 0 0 0 0 0 0 0 0 0 0.25 0"/>
<feBlend mode="normal" in2="BackgroundImageFix" result="effect1_dropShadow_6_44"/>
<feBlend mode="normal" in="SourceGraphic" in2="effect1_dropShadow_6_44" result="shape"/>
</filter>
</defs>
</svg>
