<svg width="101" height="101" viewBox="0 0 101 101" fill="none" xmlns="http://www.w3.org/2000/svg">
<path fill-rule="evenodd" clip-rule="evenodd" d="M86.2837 14.6661C76.7906 5.21322 64.1647 0.00479597 50.7121 0C22.9918 0 0.431623 22.4332 0.421978 50.0076C0.417155 58.8225 2.73442 67.4264 7.13506 75.009L0 100.926L26.6594 93.9721C34.0042 97.9577 42.275 100.056 50.6905 100.058H50.7121C78.4276 100.058 100.99 77.6227 101 50.0483C101.005 36.6845 95.7794 24.1213 86.2837 14.6685V14.6661ZM50.7121 91.6126H50.6953C43.196 91.6104 35.8393 89.6054 29.4205 85.819L27.894 84.9176L12.0734 89.0443L16.2956 73.7043L15.3021 72.1313C11.1185 65.513 8.90736 57.8632 8.91218 50.0101C8.92183 27.0924 27.6721 8.44569 50.7292 8.44569C61.8934 8.45049 72.3875 12.7789 80.2796 20.6371C88.1719 28.4929 92.5146 38.9386 92.5098 50.0435C92.5 72.9636 73.7499 91.6104 50.7121 91.6104V91.6126ZM73.6388 60.482C72.3825 59.8562 66.2049 56.8345 65.0521 56.4174C63.8996 56 63.063 55.7916 62.2261 57.0432C61.3895 58.2951 58.9806 61.1103 58.2475 61.9423C57.5145 62.7768 56.7814 62.88 55.525 62.2539C54.269 61.6281 50.2203 60.3093 45.4194 56.0528C41.6844 52.7387 39.1619 48.648 38.4291 47.3961C37.696 46.1444 38.3519 45.4681 38.9787 44.8471C39.5429 44.286 40.235 43.3868 40.8643 42.6577C41.4939 41.9287 41.7012 41.4061 42.1206 40.5738C42.5404 39.7393 42.3305 39.0106 42.0171 38.3845C41.7035 37.7587 39.1911 31.6077 38.1421 29.1067C37.122 26.6704 36.0853 27.0013 35.3161 26.9606C34.583 26.9246 33.7463 26.9174 32.9072 26.9174C32.0681 26.9174 30.7079 27.2291 29.5554 28.4809C28.4029 29.7325 25.1572 32.7564 25.1572 38.9048C25.1572 45.0533 29.6592 50.998 30.2885 51.8325C30.9178 52.667 39.1498 65.2876 51.7538 70.7022C54.7513 71.9898 57.0925 72.7596 58.9178 73.3352C61.9273 74.2872 64.6664 74.153 66.8317 73.8316C69.2456 73.4719 74.2659 70.8077 75.3123 67.8893C76.3588 64.9709 76.3588 62.4674 76.0454 61.947C75.732 61.4267 74.8929 61.1125 73.6366 60.4867L73.6388 60.482Z" fill="#25D366"/>
</svg>
